<svg id="Layer_1" data-name="Layer 1" xmlns="http://www.w3.org/2000/svg" viewBox="0 0 36.19 36.19"><title>fredfy-icon</title><path d="M46.09,11.74V39.93H17.9V11.74H46.09m2.45-4H15.45A1.55,1.55,0,0,0,13.9,9.29V42.37a1.56,1.56,0,0,0,1.55,1.56H48.54a1.56,1.56,0,0,0,1.55-1.56V9.29a1.55,1.55,0,0,0-1.55-1.55Z" transform="translate(-13.9 -7.74)"/><path d="M42.42,32.43H36.7a.58.58,0,0,0-.58.58v2.14a.58.58,0,0,0,.58.57h5.72a.57.57,0,0,0,.57-.57V33a.57.57,0,0,0-.57-.58Z" transform="translate(-13.9 -7.74)"/></svg>