<svg id="Layer_1" data-name="Layer 1" xmlns="http://www.w3.org/2000/svg" viewBox="0 0 36.19 36.19"><defs><style>.cls-1{fill:#1c1c1c;}.cls-2{fill:#fff;}</style></defs><title>terminal</title><rect class="cls-1" x="1.77" y="1.59" width="32" height="32"/><path d="M39.42,10.41V38.59H11.23V10.41H39.42m2.45-4H8.79A1.55,1.55,0,0,0,7.23,8V41a1.55,1.55,0,0,0,1.56,1.55H41.87A1.54,1.54,0,0,0,43.42,41V8a1.54,1.54,0,0,0-1.55-1.55Z" transform="translate(-7.23 -6.41)"/><path class="cls-2" d="M35.75,31.1H30a.58.58,0,0,0-.57.57v2.14a.58.58,0,0,0,.57.58h5.72a.58.58,0,0,0,.58-.58V31.67a.58.58,0,0,0-.58-.57Z" transform="translate(-7.23 -6.41)"/></svg>